<?xml version="1.0" encoding="UTF-8"?>
<svg width="160" height="40" viewBox="0 0 160 40" fill="none" xmlns="http://www.w3.org/2000/svg">
  <!-- Background gradient -->
  <defs>
    <linearGradient id="gradient" x1="0%" y1="0%" x2="100%" y2="100%">
      <stop offset="0%" style="stop-color:#4F46E5"/>
      <stop offset="100%" style="stop-color:#7C3AED"/>
    </linearGradient>
  </defs>
  
  <!-- N -->
  <path d="M10 8V32H20L30 18V32H40V8H30L20 22V8H10Z" fill="url(#gradient)"/>
  
  <!-- E -->
  <path d="M50 8H90V12H54V18H88V22H54V28H90V32H50V8Z" fill="url(#gradient)"/>
  
  <!-- X -->
  <path d="M100 8L110 20L120 8H130L115 25L130 32H120L110 22L100 32H90L105 25L90 8H100Z" fill="url(#gradient)"/>
  
  <!-- U -->
  <path d="M140 8V28C140 30.2091 138.209 32 136 32H124C121.791 32 120 30.2091 120 28V8H130V28C130 28.5523 130.448 29 131 29H129C129.552 29 130 28.5523 130 28V8H140Z" fill="url(#gradient)"/>
  
  <!-- S -->
  <path d="M150 12C150 10.8954 150.895 10 152 10H158C159.105 10 160 10.8954 160 12V16C160 17.1046 159.105 18 158 18H152C150.895 18 150 17.1046 150 16V12ZM152 22C150.895 22 150 22.8954 150 24V28C150 29.1046 150.895 30 152 30H158C159.105 30 160 29.1046 160 28V24C160 22.8954 159.105 22 158 22H152Z" fill="url(#gradient)"/>
</svg>
